<svg viewBox="0 0 800 400" xmlns="http://www.w3.org/2000/svg">
  <defs>
    <linearGradient id="bg" x1="0%" y1="0%" x2="100%" y2="100%">
      <stop offset="0%" stop-color="rgb(7,13,24)"/>
      <stop offset="100%" stop-color="rgb(10,35,32)"/>
    </linearGradient>
  </defs>
  <rect width="800" height="400" fill="url(#bg)"/>
  <circle cx="680" cy="110" r="95" fill="none" stroke="rgba(34,197,94,.35)" stroke-width="2"/>
  <circle cx="680" cy="110" r="60" fill="none" stroke="rgba(34,197,94,.35)" stroke-width="2"/>
  <g opacity="1"><line x1="0" y1="0" x2="800" y2="0" stroke="#000" stroke-opacity="0.05" stroke-width="1"/><line x1="0" y1="6" x2="800" y2="6" stroke="#000" stroke-opacity="0.05" stroke-width="1"/><line x1="0" y1="12" x2="800" y2="12" stroke="#000" stroke-opacity="0.05" stroke-width="1"/><line x1="0" y1="18" x2="800" y2="18" stroke="#000" stroke-opacity="0.05" stroke-width="1"/><line x1="0" y1="24" x2="800" y2="24" stroke="#000" stroke-opacity="0.05" stroke-width="1"/><line x1="0" y1="30" x2="800" y2="30" stroke="#000" stroke-opacity="0.05" stroke-width="1"/><line x1="0" y1="36" x2="800" y2="36" stroke="#000" stroke-opacity="0.05" stroke-width="1"/><line x1="0" y1="42" x2="800" y2="42" stroke="#000" stroke-opacity="0.05" stroke-width="1"/><line x1="0" y1="48" x2="800" y2="48" stroke="#000" stroke-opacity="0.05" stroke-width="1"/><line x1="0" y1="54" x2="800" y2="54" stroke="#000" stroke-opacity="0.05" stroke-width="1"/><line x1="0" y1="60" x2="800" y2="60" stroke="#000" stroke-opacity="0.05" stroke-width="1"/><line x1="0" y1="66" x2="800" y2="66" stroke="#000" stroke-opacity="0.05" stroke-width="1"/><line x1="0" y1="72" x2="800" y2="72" stroke="#000" stroke-opacity="0.05" stroke-width="1"/><line x1="0" y1="78" x2="800" y2="78" stroke="#000" stroke-opacity="0.05" stroke-width="1"/><line x1="0" y1="84" x2="800" y2="84" stroke="#000" stroke-opacity="0.05" stroke-width="1"/><line x1="0" y1="90" x2="800" y2="90" stroke="#000" stroke-opacity="0.05" stroke-width="1"/><line x1="0" y1="96" x2="800" y2="96" stroke="#000" stroke-opacity="0.05" stroke-width="1"/><line x1="0" y1="102" x2="800" y2="102" stroke="#000" stroke-opacity="0.05" stroke-width="1"/><line x1="0" y1="108" x2="800" y2="108" stroke="#000" stroke-opacity="0.05" stroke-width="1"/><line x1="0" y1="114" x2="800" y2="114" stroke="#000" stroke-opacity="0.05" stroke-width="1"/><line x1="0" y1="120" x2="800" y2="120" stroke="#000" stroke-opacity="0.05" stroke-width="1"/><line x1="0" y1="126" x2="800" y2="126" stroke="#000" stroke-opacity="0.05" stroke-width="1"/><line x1="0" y1="132" x2="800" y2="132" stroke="#000" stroke-opacity="0.05" stroke-width="1"/><line x1="0" y1="138" x2="800" y2="138" stroke="#000" stroke-opacity="0.05" stroke-width="1"/><line x1="0" y1="144" x2="800" y2="144" stroke="#000" stroke-opacity="0.05" stroke-width="1"/><line x1="0" y1="150" x2="800" y2="150" stroke="#000" stroke-opacity="0.05" stroke-width="1"/><line x1="0" y1="156" x2="800" y2="156" stroke="#000" stroke-opacity="0.05" stroke-width="1"/><line x1="0" y1="162" x2="800" y2="162" stroke="#000" stroke-opacity="0.05" stroke-width="1"/><line x1="0" y1="168" x2="800" y2="168" stroke="#000" stroke-opacity="0.05" stroke-width="1"/><line x1="0" y1="174" x2="800" y2="174" stroke="#000" stroke-opacity="0.05" stroke-width="1"/><line x1="0" y1="180" x2="800" y2="180" stroke="#000" stroke-opacity="0.05" stroke-width="1"/><line x1="0" y1="186" x2="800" y2="186" stroke="#000" stroke-opacity="0.05" stroke-width="1"/><line x1="0" y1="192" x2="800" y2="192" stroke="#000" stroke-opacity="0.05" stroke-width="1"/><line x1="0" y1="198" x2="800" y2="198" stroke="#000" stroke-opacity="0.05" stroke-width="1"/><line x1="0" y1="204" x2="800" y2="204" stroke="#000" stroke-opacity="0.05" stroke-width="1"/><line x1="0" y1="210" x2="800" y2="210" stroke="#000" stroke-opacity="0.05" stroke-width="1"/><line x1="0" y1="216" x2="800" y2="216" stroke="#000" stroke-opacity="0.05" stroke-width="1"/><line x1="0" y1="222" x2="800" y2="222" stroke="#000" stroke-opacity="0.05" stroke-width="1"/><line x1="0" y1="228" x2="800" y2="228" stroke="#000" stroke-opacity="0.05" stroke-width="1"/><line x1="0" y1="234" x2="800" y2="234" stroke="#000" stroke-opacity="0.05" stroke-width="1"/><line x1="0" y1="240" x2="800" y2="240" stroke="#000" stroke-opacity="0.05" stroke-width="1"/><line x1="0" y1="246" x2="800" y2="246" stroke="#000" stroke-opacity="0.05" stroke-width="1"/><line x1="0" y1="252" x2="800" y2="252" stroke="#000" stroke-opacity="0.05" stroke-width="1"/><line x1="0" y1="258" x2="800" y2="258" stroke="#000" stroke-opacity="0.05" stroke-width="1"/><line x1="0" y1="264" x2="800" y2="264" stroke="#000" stroke-opacity="0.05" stroke-width="1"/><line x1="0" y1="270" x2="800" y2="270" stroke="#000" stroke-opacity="0.05" stroke-width="1"/><line x1="0" y1="276" x2="800" y2="276" stroke="#000" stroke-opacity="0.05" stroke-width="1"/><line x1="0" y1="282" x2="800" y2="282" stroke="#000" stroke-opacity="0.05" stroke-width="1"/><line x1="0" y1="288" x2="800" y2="288" stroke="#000" stroke-opacity="0.05" stroke-width="1"/><line x1="0" y1="294" x2="800" y2="294" stroke="#000" stroke-opacity="0.05" stroke-width="1"/><line x1="0" y1="300" x2="800" y2="300" stroke="#000" stroke-opacity="0.05" stroke-width="1"/><line x1="0" y1="306" x2="800" y2="306" stroke="#000" stroke-opacity="0.05" stroke-width="1"/><line x1="0" y1="312" x2="800" y2="312" stroke="#000" stroke-opacity="0.05" stroke-width="1"/><line x1="0" y1="318" x2="800" y2="318" stroke="#000" stroke-opacity="0.05" stroke-width="1"/><line x1="0" y1="324" x2="800" y2="324" stroke="#000" stroke-opacity="0.05" stroke-width="1"/><line x1="0" y1="330" x2="800" y2="330" stroke="#000" stroke-opacity="0.05" stroke-width="1"/><line x1="0" y1="336" x2="800" y2="336" stroke="#000" stroke-opacity="0.05" stroke-width="1"/><line x1="0" y1="342" x2="800" y2="342" stroke="#000" stroke-opacity="0.05" stroke-width="1"/><line x1="0" y1="348" x2="800" y2="348" stroke="#000" stroke-opacity="0.05" stroke-width="1"/><line x1="0" y1="354" x2="800" y2="354" stroke="#000" stroke-opacity="0.05" stroke-width="1"/><line x1="0" y1="360" x2="800" y2="360" stroke="#000" stroke-opacity="0.05" stroke-width="1"/><line x1="0" y1="366" x2="800" y2="366" stroke="#000" stroke-opacity="0.05" stroke-width="1"/><line x1="0" y1="372" x2="800" y2="372" stroke="#000" stroke-opacity="0.05" stroke-width="1"/><line x1="0" y1="378" x2="800" y2="378" stroke="#000" stroke-opacity="0.05" stroke-width="1"/><line x1="0" y1="384" x2="800" y2="384" stroke="#000" stroke-opacity="0.05" stroke-width="1"/><line x1="0" y1="390" x2="800" y2="390" stroke="#000" stroke-opacity="0.05" stroke-width="1"/><line x1="0" y1="396" x2="800" y2="396" stroke="#000" stroke-opacity="0.05" stroke-width="1"/></g>
  <text x="60" y="200" font-family="'Courier New', monospace" font-weight="800" font-size="92" fill="#22c55e" letter-spacing="1">LDAP</text>
  <line x1="62" y1="222" x2="290.15999999999997" y2="222" stroke="#22c55e" stroke-opacity=".4" stroke-width="2"/>
  <text x="60" y="256" font-family="'Courier New', monospace" font-size="22" fill="rgba(255,255,255,.55)">AlmaLinux · Active Directory · SSSD</text>
  <text x="60" y="360" font-family="'Courier New', monospace" font-size="16" fill="rgba(255,255,255,.3)">50bvd.com &#183; Blog technique</text>
</svg>